<svg xmlns="http://www.w3.org/2000/svg" x="0px" y="0px" width="48" height="48" viewBox="0 0 24 24">
<linearGradient id="Ini5olXKgMfMTJevixa0Oa_K8oUpsrDKwaQ_gr1" x1="9.946" x2="14.029" y1="9.969" y2="14.052" gradientUnits="userSpaceOnUse"><stop offset="0" stop-color="#fff" stop-opacity=".6"></stop><stop offset="1" stop-color="#fff" stop-opacity=".3"></stop></linearGradient><path fill="url(#Ini5olXKgMfMTJevixa0Oa_K8oUpsrDKwaQ_gr1)" d="M13.697,13.202c0-1.848-2.04-1.596-2.04-2.559c0-0.567,0.446-0.627,0.6-0.627 c0.152,0,0.287,0.036,0.401,0.088c0.268,0.121,0.586,0.009,0.756-0.232c0.218-0.308,0.105-0.741-0.239-0.896 c-0.189-0.085-0.424-0.153-0.709-0.18V8.528c0-0.247-0.2-0.447-0.447-0.447s-0.447,0.2-0.447,0.447V8.89 c-0.749,0.25-1.235,0.935-1.235,1.812c0,1.939,2.015,1.589,2.015,2.597c0,0.194-0.092,0.617-0.592,0.617 c-0.222,0-0.414-0.063-0.57-0.144c-0.265-0.139-0.594-0.036-0.763,0.211l-0.018,0.026c-0.195,0.285-0.116,0.685,0.184,0.856 c0.253,0.143,0.562,0.255,0.934,0.294v0.314c0,0.247,0.2,0.447,0.447,0.447c0.247,0,0.447-0.2,0.447-0.447v-0.394 C13.251,14.824,13.697,14.069,13.697,13.202z"></path><linearGradient id="Ini5olXKgMfMTJevixa0Ob_K8oUpsrDKwaQ_gr2" x1="10.303" x2="13.697" y1="12" y2="12" gradientUnits="userSpaceOnUse"><stop offset="0" stop-color="#fff" stop-opacity=".6"></stop><stop offset=".493" stop-color="#fff" stop-opacity="0"></stop><stop offset=".997" stop-color="#fff" stop-opacity=".3"></stop></linearGradient><path fill="url(#Ini5olXKgMfMTJevixa0Ob_K8oUpsrDKwaQ_gr2)" d="M12.049,9.258l0.371,0.035 c0.205,0.019,0.39,0.066,0.551,0.138c0.026,0.012,0.044,0.033,0.052,0.062c0.005,0.018,0.009,0.054-0.016,0.09 c-0.031,0.043-0.075,0.065-0.126,0.065c-0.005,0-0.01,0-0.016-0.001c-0.194-0.088-0.398-0.132-0.606-0.132 c-0.53,0-1.1,0.353-1.1,1.127c0,0.705,0.577,1.011,1.041,1.257c0.619,0.328,0.999,0.567,0.999,1.302 c0,0.699-0.344,1.221-0.921,1.398l-0.325,0.1l-0.371-0.039c-0.27-0.028-0.519-0.106-0.74-0.232c-0.018-0.01-0.03-0.027-0.035-0.05 c-0.003-0.014-0.008-0.052,0.035-0.114c0.023-0.033,0.058-0.051,0.1-0.051c0.006,0,0.012,0,0.018,0.001 c0.255,0.133,0.525,0.201,0.802,0.201c0.717,0,1.092-0.562,1.092-1.117c0-0.726-0.598-1.037-1.034-1.264 c-0.548-0.285-0.981-0.51-0.981-1.334c0-0.651,0.334-1.151,0.893-1.337L12.049,9.258 M12.019,8.08c-0.247,0-0.447,0.2-0.447,0.447 V8.89c-0.749,0.25-1.235,0.935-1.235,1.812c0,1.939,2.015,1.589,2.015,2.597c0,0.194-0.092,0.617-0.592,0.617 c-0.222,0-0.414-0.063-0.57-0.144c-0.081-0.042-0.168-0.062-0.255-0.062c-0.196,0-0.39,0.102-0.508,0.273l-0.018,0.026 c-0.195,0.285-0.116,0.685,0.184,0.856c0.253,0.143,0.562,0.255,0.934,0.294v0.314c0,0.247,0.2,0.447,0.447,0.447 c0.247,0,0.447-0.2,0.447-0.447v-0.394c0.828-0.254,1.274-1.009,1.274-1.876c0-1.848-2.04-1.596-2.04-2.559 c0-0.567,0.446-0.627,0.6-0.627c0.152,0,0.287,0.036,0.401,0.088c0.074,0.034,0.152,0.049,0.23,0.049 c0.203,0,0.403-0.107,0.526-0.281c0.218-0.308,0.105-0.741-0.239-0.896c-0.189-0.085-0.424-0.153-0.709-0.18V8.528 C12.467,8.281,12.266,8.08,12.019,8.08L12.019,8.08z"></path><g><linearGradient id="Ini5olXKgMfMTJevixa0Oc_K8oUpsrDKwaQ_gr3" x1="9.946" x2="14.029" y1="9.969" y2="14.052" gradientUnits="userSpaceOnUse"><stop offset="0" stop-color="#fff" stop-opacity=".6"></stop><stop offset="1" stop-color="#fff" stop-opacity=".3"></stop></linearGradient><path fill="url(#Ini5olXKgMfMTJevixa0Oc_K8oUpsrDKwaQ_gr3)" d="M13.697,13.202 c0-1.848-2.04-1.596-2.04-2.559c0-0.567,0.446-0.627,0.6-0.627c0.152,0,0.287,0.036,0.401,0.088 c0.268,0.121,0.586,0.009,0.756-0.232c0.218-0.308,0.105-0.741-0.239-0.896c-0.189-0.085-0.424-0.153-0.709-0.18V8.528 c0-0.247-0.2-0.447-0.447-0.447s-0.447,0.2-0.447,0.447V8.89c-0.749,0.25-1.235,0.935-1.235,1.812c0,1.939,2.015,1.589,2.015,2.597 c0,0.194-0.092,0.617-0.592,0.617c-0.222,0-0.414-0.063-0.57-0.144c-0.265-0.139-0.594-0.036-0.763,0.211l-0.018,0.026 c-0.195,0.285-0.116,0.685,0.184,0.856c0.253,0.143,0.562,0.255,0.934,0.294v0.314c0,0.247,0.2,0.447,0.447,0.447 c0.247,0,0.447-0.2,0.447-0.447v-0.394C13.251,14.824,13.697,14.069,13.697,13.202z"></path></g><g><linearGradient id="Ini5olXKgMfMTJevixa0Od_K8oUpsrDKwaQ_gr4" x1="8.554" x2="19.492" y1="1.617" y2="12.555" gradientUnits="userSpaceOnUse"><stop offset="0" stop-color="#fff" stop-opacity=".6"></stop><stop offset="1" stop-color="#fff" stop-opacity=".3"></stop></linearGradient><path fill="url(#Ini5olXKgMfMTJevixa0Od_K8oUpsrDKwaQ_gr4)" d="M21.196,6.165l-0.742,0.471 c-0.089-0.139-0.199-0.267-0.295-0.402c-0.019-0.03-0.032-0.062-0.053-0.091c-0.042-0.058-0.093-0.109-0.136-0.166 c-0.154-0.202-0.313-0.399-0.483-0.59c-0.126-0.142-0.258-0.277-0.391-0.411c-0.141-0.141-0.281-0.281-0.431-0.414 c-0.206-0.184-0.421-0.353-0.64-0.518c-0.095-0.071-0.184-0.145-0.282-0.213C16.077,2.662,14.077,2,12,2 C9.788,2,7.674,2.829,5.717,4.466c-0.848,0.708-0.96,1.97-0.251,2.817c0.708,0.847,1.97,0.96,2.817,0.251 C9.518,6.502,10.733,6,12,6c0.164,0,0.326,0.016,0.488,0.029c0.04,0.006,0.076,0.021,0.116,0.025 c0.378,0.035,0.756,0.106,1.129,0.214c0.003,0.001,0.006,0.002,0.01,0.003c0.164,0.048,0.327,0.106,0.489,0.169 c0.111,0.045,0.221,0.094,0.329,0.145c0.066,0.03,0.133,0.058,0.198,0.091c0.179,0.093,0.352,0.196,0.521,0.306 c0.022,0.014,0.044,0.026,0.066,0.04c0.582,0.391,1.1,0.884,1.52,1.466c0.026,0.036,0.061,0.062,0.089,0.096 c0.044,0.063,0.095,0.121,0.136,0.185l-0.778,0.494c-0.456,0.289-0.336,0.984,0.19,1.105l3.739,0.855 c0.476,0.109,0.949-0.191,1.053-0.668l0.819-3.747C22.23,6.281,21.652,5.876,21.196,6.165z"></path><linearGradient id="Ini5olXKgMfMTJevixa0Oe_K8oUpsrDKwaQ_gr5" x1="5" x2="22.13" y1="6.622" y2="6.622" gradientUnits="userSpaceOnUse"><stop offset="0" stop-color="#fff" stop-opacity=".6"></stop><stop offset=".493" stop-color="#fff" stop-opacity="0"></stop><stop offset=".997" stop-color="#fff" stop-opacity=".3"></stop></linearGradient><path fill="url(#Ini5olXKgMfMTJevixa0Oe_K8oUpsrDKwaQ_gr5)" d="M12,2.5c1.946,0,3.833,0.601,5.457,1.741 c0.054,0.037,0.105,0.077,0.156,0.117l0.109,0.084c0.173,0.131,0.399,0.305,0.61,0.493c0.143,0.126,0.276,0.26,0.408,0.392 c0.127,0.128,0.252,0.255,0.373,0.392c0.162,0.181,0.313,0.369,0.458,0.559c0.027,0.035,0.055,0.068,0.083,0.102 c0.016,0.018,0.032,0.036,0.039,0.047l0.038,0.07l0.02,0.027c0.041,0.058,0.085,0.114,0.128,0.171 c0.053,0.069,0.107,0.138,0.153,0.211l0.269,0.418l0.42-0.266l0.742-0.471c0.02-0.013,0.038-0.018,0.056-0.018 c0.032,0,0.066,0.018,0.088,0.045c0.02,0.025,0.026,0.052,0.018,0.087l-0.819,3.746c-0.038,0.172-0.193,0.298-0.369,0.298 c-0.028,0-0.057-0.003-0.085-0.01L16.615,9.88c-0.046-0.011-0.074-0.04-0.082-0.087c-0.008-0.047,0.008-0.083,0.048-0.109 l0.778-0.494l0.426-0.27l-0.274-0.424c-0.031-0.049-0.066-0.095-0.102-0.141l-0.07-0.092c-0.023-0.028-0.049-0.054-0.069-0.07 c-0.45-0.622-1.004-1.157-1.651-1.591l-0.066-0.041c-0.183-0.119-0.371-0.231-0.569-0.334c-0.052-0.026-0.104-0.049-0.156-0.073 l-0.053-0.024c-0.117-0.055-0.236-0.108-0.361-0.159c-0.175-0.068-0.352-0.131-0.54-0.186c-0.398-0.116-0.81-0.194-1.206-0.231 c-0.035-0.009-0.071-0.017-0.138-0.026l-0.067-0.006C12.308,5.512,12.155,5.5,12,5.5c-1.388,0-2.709,0.54-4.038,1.651 C7.693,7.376,7.351,7.5,7.001,7.5c-0.446,0-0.866-0.196-1.152-0.538C5.592,6.655,5.47,6.266,5.506,5.867 c0.036-0.399,0.224-0.76,0.532-1.017C7.902,3.29,9.907,2.5,12,2.5 M12,2C9.788,2,7.674,2.829,5.717,4.466 c-0.848,0.708-0.96,1.97-0.251,2.817C5.861,7.756,6.429,8,7.001,8c0.453,0,0.907-0.153,1.282-0.466C9.518,6.502,10.733,6,12,6 c0.164,0,0.326,0.016,0.488,0.029c0.04,0.006,0.076,0.021,0.116,0.025c0.378,0.035,0.756,0.106,1.129,0.214 c0.003,0.001,0.006,0.002,0.01,0.003c0.164,0.048,0.327,0.106,0.489,0.169c0.111,0.045,0.221,0.094,0.329,0.145 c0.066,0.03,0.133,0.058,0.198,0.091c0.179,0.093,0.352,0.196,0.521,0.306c0.022,0.014,0.044,0.026,0.066,0.04 c0.582,0.391,1.1,0.884,1.52,1.466c0.026,0.036,0.061,0.062,0.089,0.096c0.044,0.063,0.095,0.121,0.136,0.185l-0.778,0.494 c-0.456,0.289-0.336,0.984,0.19,1.105l3.739,0.855c0.066,0.015,0.132,0.022,0.197,0.022c0.403,0,0.767-0.28,0.857-0.69l0.819-3.747 c0.089-0.406-0.234-0.739-0.595-0.739c-0.108,0-0.219,0.03-0.324,0.096l-0.742,0.471c-0.089-0.139-0.199-0.267-0.295-0.402 c-0.019-0.03-0.032-0.062-0.053-0.091c-0.042-0.058-0.093-0.109-0.136-0.166c-0.154-0.202-0.313-0.399-0.483-0.59 c-0.126-0.142-0.258-0.277-0.391-0.411c-0.141-0.141-0.281-0.281-0.431-0.414c-0.206-0.184-0.421-0.353-0.64-0.518 c-0.095-0.071-0.184-0.145-0.282-0.213C16.077,2.662,14.077,2,12,2L12,2z"></path></g><g><linearGradient id="Ini5olXKgMfMTJevixa0Of_K8oUpsrDKwaQ_gr6" x1="4.847" x2="16.071" y1="10.691" y2="21.915" gradientUnits="userSpaceOnUse"><stop offset="0" stop-color="#fff" stop-opacity=".6"></stop><stop offset="1" stop-color="#fff" stop-opacity=".3"></stop></linearGradient><path fill="url(#Ini5olXKgMfMTJevixa0Of_K8oUpsrDKwaQ_gr6)" d="M19.173,15.38 c-0.895-0.648-2.146-0.448-2.793,0.447C15.277,17.351,13.967,18,12,18c-0.275,0-0.543-0.038-0.811-0.074 c-0.014-0.002-0.027-0.009-0.042-0.011c-0.18-0.024-0.36-0.057-0.539-0.098c-0.204-0.049-0.407-0.102-0.606-0.172 c-0.361-0.124-0.716-0.283-1.059-0.481c-0.93-0.537-1.658-1.285-2.166-2.148l0.798-0.461c0.467-0.27,0.377-0.969-0.144-1.112 l-3.7-1.01c-0.471-0.129-0.956,0.152-1.08,0.624l-0.975,3.71c-0.137,0.522,0.424,0.95,0.891,0.68l0.762-0.441 c0.847,1.449,2.065,2.707,3.623,3.607c0.354,0.205,0.717,0.378,1.084,0.535c0.11,0.07,0.229,0.131,0.355,0.18 C9.543,21.773,10.757,22,12,22c3.263,0,5.755-1.252,7.62-3.827C20.268,17.278,20.067,16.027,19.173,15.38z"></path><linearGradient id="Ini5olXKgMfMTJevixa0Og_K8oUpsrDKwaQ_gr7" x1="1.655" x2="20" y1="17.201" y2="17.201" gradientUnits="userSpaceOnUse"><stop offset="0" stop-color="#fff" stop-opacity=".6"></stop><stop offset=".493" stop-color="#fff" stop-opacity="0"></stop><stop offset=".997" stop-color="#fff" stop-opacity=".3"></stop></linearGradient><path fill="url(#Ini5olXKgMfMTJevixa0Og_K8oUpsrDKwaQ_gr7)" d="M3.499,12.902 c0.033,0,0.067,0.005,0.1,0.014l3.699,1.01c0.046,0.013,0.073,0.043,0.079,0.09c0.006,0.047-0.012,0.083-0.053,0.107l-0.798,0.461 L6.09,14.835l0.256,0.434c0.567,0.964,1.379,1.768,2.347,2.327c0.362,0.209,0.748,0.385,1.143,0.52 c0.232,0.082,0.462,0.141,0.662,0.188c0.184,0.042,0.369,0.076,0.553,0.102c0.024,0.006,0.053,0.012,0.101,0.019 C11.422,18.462,11.702,18.5,12,18.5c2.118,0,3.594-0.734,4.785-2.38c0.281-0.389,0.735-0.621,1.216-0.621 c0.317,0,0.621,0.099,0.878,0.286c0.67,0.485,0.82,1.425,0.335,2.095C17.451,20.316,15.091,21.5,12,21.5 c-1.18,0-2.333-0.215-3.428-0.638c-0.092-0.035-0.181-0.081-0.267-0.136L8.27,20.704l-0.038-0.016 c-0.386-0.165-0.723-0.331-1.03-0.508c-1.421-0.821-2.611-2.006-3.441-3.426l-0.251-0.43l-0.431,0.249l-0.762,0.441 C2.298,17.025,2.28,17.03,2.263,17.03c-0.032,0-0.066-0.018-0.088-0.047c-0.02-0.026-0.025-0.054-0.016-0.09l0.975-3.71 C3.178,13.018,3.328,12.902,3.499,12.902L3.499,12.902 M3.499,12.402c-0.389,0-0.744,0.261-0.848,0.655l-0.975,3.71 c-0.108,0.411,0.217,0.763,0.587,0.763c0.1,0,0.204-0.026,0.304-0.083l0.762-0.441c0.847,1.449,2.065,2.707,3.623,3.607 c0.354,0.205,0.717,0.378,1.084,0.535c0.11,0.07,0.229,0.131,0.355,0.18C9.543,21.773,10.757,22,12,22 c3.263,0,5.755-1.252,7.62-3.827c0.647-0.895,0.447-2.146-0.447-2.793c-0.354-0.257-0.765-0.381-1.172-0.381 c-0.62,0-1.231,0.287-1.621,0.828C15.277,17.351,13.967,18,12,18c-0.275,0-0.543-0.038-0.811-0.074 c-0.014-0.002-0.027-0.009-0.042-0.011c-0.18-0.024-0.36-0.057-0.539-0.098c-0.204-0.049-0.407-0.102-0.606-0.172 c-0.361-0.124-0.716-0.283-1.059-0.481c-0.93-0.537-1.658-1.285-2.166-2.148l0.798-0.461c0.467-0.27,0.377-0.969-0.144-1.112 l-3.7-1.01C3.654,12.412,3.576,12.402,3.499,12.402L3.499,12.402z"></path></g>
</svg>